<?xml version="1.0" encoding="UTF-8"?><svg id="Layer_2" xmlns="http://www.w3.org/2000/svg" viewBox="0 0 3238.58 3238.56"><g id="_Layer_"><path d="m1426.67,470.72c-22.33-9.36-45.8-14.11-69.75-14.11-49.84,0-98.29,20.66-136.43,58.18-33.81,33.28-56.89,75.58-68.68,125.83-27.42,2.22-65.9,8.09-105.46,23.01-53.35,20.13-94.32,51.26-121.75,92.52-25.02,37.63-37.97,82.95-38.55,134.8-29.39,9.65-128.02,47.92-178.56,140.08-29.86,54.58-37.14,117.11-21.67,185.93-53.02,35.43-161.89,122.74-164.64,243.23-1.05,46.16,13.84,91.72,44.26,135.5-30.67,54.55-90.4,182.46-60.82,308.45,16.41,70,57.72,128.03,122.81,172.58-10.6,52.17-7.56,104.5,9.05,155.65,28.59,87.82,75.7,144.75,140,169.23,22.47,8.57,46.8,12.91,72.3,12.91,18.84,0,38.3-2.35,58.04-6.99-4.62,32.67-5.39,63.23-2.31,91.03,4.97,44.72,19.95,81.03,44.52,107.93,32.09,35.14,78.5,52.96,137.95,52.96,18.79,0,39.26-1.83,60.97-5.44,9.21,23.08,22.28,43.98,38.94,62.23,43.83,47.79,112.77,76.33,184.41,76.33h.07c32.75,0,64.25-5.79,93.64-17.22,75-29.18,118.01-89.41,118.01-165.24V799.08c0-237.29-109.35-308.69-156.36-328.37Zm-180.02,1961.59c9.4-19.13,1.5-42.34-17.58-51.72-5.37-2.66-11.12-4.01-17.1-4.01-14.86,0-28.16,8.27-34.7,21.58-32.01,65.03-47.14,125.51-45.04,179.93-16.49,2.63-31.79,3.96-45.6,3.96-36.61,0-63.69-9.29-80.48-27.6-23.54-25.73-27.15-68.88-26.03-100.54,1.33-37.49,9.66-74.81,16.39-95.36,4.97-15.1,0-31.99-12.35-42.01-6.86-5.6-15.53-8.68-24.41-8.68-6.75,0-13.4,1.77-19.25,5.13h-.02c-4.5,2.49-45.27,24.17-91.83,24.17-16.18,0-31.31-2.66-44.98-7.91-41.2-15.83-72.72-56.48-93.69-120.81-13.69-42.05-14.68-85.71-2.93-129.77,2.5-4.49,4.03-9.47,4.56-14.83,37.36-113.33,148.88-201.69,191.33-232.05,18.01,15.56,54.95,51.54,59.34,88.17,2.16,18.12-4.04,34.47-19.52,51.44-6.99,7.62-10.58,17.49-10.12,27.81.46,10.3,4.91,19.82,12.5,26.78,7.09,6.55,16.38,10.15,26.14,10.15,10.83,0,21.22-4.6,28.5-12.59,30.99-33.86,44.19-71.82,39.25-112.81-5.66-47.13-35.57-87.87-63.18-116.25,82.4-42.13,134.76-95.75,155.71-159.52,11.54-35.13,12.96-73.03,4.22-110.33,37.38-2.31,77.31-8.1,118.88-17.27,10.07-2.19,18.68-8.17,24.25-16.86,5.59-8.72,7.44-19.11,5.21-29.25-3.89-17.57-19.74-30.32-37.7-30.32-2.8,0-5.62.31-8.36.92-49.95,11.01-96.21,16.59-137.47,16.6h-.04c-176.55,0-211.34-100.8-212.7-105-5.11-16.23-19.95-27.13-36.92-27.13-3.8,0-7.58.57-11.22,1.68-20.39,6.18-31.96,27.8-25.78,48.24,1.23,3.99,13.05,40.06,49.6,76.57,21.04,21.01,46.36,38.38,75.27,51.61,33.97,15.55,73.04,25.42,116.24,29.38,7.26,18.91,15.01,51.47,2.86,87.74-18.21,54.26-74.54,100.2-167.43,136.54-.76.28-1.39.61-1.85.89-1.57.65-2.96,1.34-4.26,2.12-6.77,4.12-162.71,100.2-231.19,248.17-38.35-31.15-62.98-68.98-73.25-112.59-19.91-84.48,14.14-175.53,40.38-228.84,29.49,27.41,65.52,54.18,107.28,79.69,6.01,3.75,12.99,5.73,20.19,5.73,13.61,0,25.95-6.92,33-18.49,5.38-8.81,7.01-19.19,4.59-29.23-2.42-10.05-8.61-18.54-17.42-23.92-55.89-34.19-98.59-69.11-126.94-103.79l-.24-.29-.15-.16-.05-.06c-.17-.21-.42-.51-.74-.86-28.13-34.92-42.02-70.03-41.29-104.37,2.32-109.56,149.26-192.75,150.71-193.56,15.96-8.78,23.65-27.83,18.28-45.32-18.43-59.49-15.85-111.55,7.66-154.72,29.89-54.82,86.73-84.74,118.67-97.9,9.43,48.77,27.48,102.47,53.74,159.83,15.51,33.81,37.45,64.65,65.23,91.64,22.27,21.64,48.33,40.89,77.48,57.21,49.79,27.89,92.35,38.13,97.04,39.21l.16.03c2.94.62,5.71.93,8.46.93,18.12,0,33.58-12.35,37.59-30,4.78-20.68-8.18-41.43-28.89-46.3l-.09-.02c-6.14-1.55-38.7-10.37-76.63-31.7-51.98-29.22-89-67.3-110.05-113.18-61.61-134.5-71.38-235.11-29.04-299.05,37.01-55.84,108.32-73.97,154.07-79.81.02,58.79,13.1,121.24,38.96,185.82,5.9,14.74,19.98,24.26,35.88,24.26,4.92,0,9.74-.93,14.31-2.77,9.61-3.83,17.14-11.17,21.2-20.66,4.07-9.48,4.19-19.99.36-29.6-60.45-151.16-28.73-257.45,21.11-306.52,23.52-23.13,52.83-35.87,82.54-35.87,13.64,0,26.96,2.68,39.58,7.98,32.92,13.79,60.32,44.22,79.23,88.01,19.41,44.95,29.67,103.41,29.67,169.07v384.61c-7.62-.67-15.01-1.01-22.07-1.01-36.17,0-65.74,8.85-88.04,26.32-42.46-100.15-96.15-164.73-96.72-165.41-7.38-8.76-18.17-13.79-29.61-13.79-9.08,0-17.91,3.22-24.88,9.08-7.89,6.65-12.73,15.97-13.62,26.25-.89,10.26,2.27,20.25,8.88,28.12l.03.04c3.14,3.82,77.41,94.96,111.95,220.47,46.28,168.17,1.98,316.92-131.66,442.11-7.55,7.04-11.9,16.61-12.25,26.93-.35,10.32,3.34,20.16,10.38,27.68,7.27,7.8,17.57,12.27,28.24,12.27,9.8,0,19.18-3.7,26.47-10.46,82.21-77,135.8-163.76,159.26-257.85,18.9-75.81,18.39-156.56-1.53-240.03,0-1.73-.11-3.37-.33-4.97-.12-1.04-2.63-25.16,11.23-37.98,8.28-7.68,22.85-11.74,42.14-11.74,6.79,0,14.2.5,22.12,1.48v740.44c-73.82-28.18-144.18-42.46-209.35-42.46-3.43,0-6.89.04-10.3.12-1.79-.25-3.6-.37-5.39-.37-2.8,0-5.59.3-8.3.91-45.91,2.5-89.52,12.34-129.64,29.24-32.41,13.66-62.62,31.93-89.79,54.31-47.16,38.85-68.68,76.32-69.58,77.89l-.05.09c-10.31,18.64-3.57,42.2,14.96,52.49,5.68,3.21,12.18,4.91,18.79,4.91,14.03,0,26.99-7.62,33.82-19.84.16-.28,16.65-28.8,53.34-58.2,47.2-37.81,104.04-59.05,169-63.17,25.55,15.19,96.76,63.13,110.11,132.15,8.77,45.3-9.68,94.24-54.83,145.44-6.84,7.74-10.24,17.68-9.59,27.99.65,10.31,5.28,19.74,13.01,26.53,7.06,6.25,16.14,9.69,25.57,9.69,11.06,0,21.63-4.76,29.01-13.08,61.83-70.13,86.31-141.2,72.75-211.24-7.05-36.3-24.16-70.96-50.99-103.39,31.19,7.97,63.83,19.2,97.45,33.55v524.86c0,57.76-43.05,83.2-68.7,93.21-20.25,7.87-42.24,11.86-65.38,11.86-50.59,0-98.35-19.14-127.75-51.19-46.71-50.97-45.73-133.24,2.77-231.66Z"/><path d="m2579.95,2247.68c2.04-17.97,3.06-35.65,3.06-52.65,89.57-39.29,144.1-95.18,162.13-166.2,11.41-44.92,7.57-94.27-11.41-146.67-14.09-38.88-33.78-71.83-49.3-94.34,42.96-47.41,62.31-99.34,57.54-154.45-8.23-95.15-87.57-172.18-139.54-212.94,19.85-27.36,30.22-58.32,30.84-92.16.71-41.6-13.81-86.49-43.16-133.41-21.71-34.7-46.7-62.55-61.8-78.03,12.21-54.47,3.21-117.31-25-173.39-30.41-60.43-80.24-107.46-140.76-133.06-2.54-44.62-18.87-84.09-48.61-117.4-32.56-36.46-80.74-64.74-143.18-84.05-47.03-14.55-91.06-20.43-115.7-22.75-32.87-47.37-71.73-86.76-112.61-114.12-42.27-28.28-85.95-43.23-126.33-43.23-14.96,0-29.53,2.05-43.29,6.09-52.66,15.43-141.01,74.82-141.01,299.23v1860.67c0,102.49,77.7,192.75,180.79,209.95,10.67,1.73,21.48,2.61,32.12,2.61,38.82,0,76.5-11.54,108.97-33.38,35.84-24.1,64.75-59.87,86.02-106.4,20.01,4.62,47.84,9.31,78.44,9.31,44.16,0,83.19-9.56,116.03-28.43,48.32-27.77,81.27-74.07,98-137.68,31.85-2.4,85.8-11.95,135.09-46.81,63.58-44.96,101.49-117.73,112.67-216.31Zm-279.13,186.22c-18.94,0-34.96,13.59-38.1,32.33-9.34,56.18-31.84,94.9-66.89,115.08-21,12.14-47.04,18.3-77.39,18.3-20.57,0-39.9-2.88-54.6-5.93,5.59-30.43,5.69-61.08.28-91.25-5.2-29.01-15.49-57.64-30.58-85.1-23.49-42.76-59.71-83.35-96.87-108.56-6.43-4.37-13.92-6.68-21.67-6.68-12.81,0-24.76,6.33-31.96,16.92-11.95,17.51-7.43,41.58,10.09,53.65,5.55,3.81,135.35,94.86,87.17,235.65-26.49,77.44-75.55,121.85-134.61,121.85-6.7,0-13.58-.58-20.46-1.72-56.32-9.35-116.17-59.35-116.17-133.62v-314.15c25.73-28.07,106.04-105.88,212.38-115.55,7.2-.65,14.5-.97,21.7-.97,69.3,0,138.66,30,206.16,89.16,7.06,6.17,16.11,9.57,25.48,9.57,11.14,0,21.73-4.8,29.06-13.16,14.04-16.04,12.42-40.52-3.6-54.57-82.01-71.9-168.33-108.36-256.57-108.36-9.85,0-19.87.46-29.76,1.37-86.33,7.99-156.87,49.23-204.84,87.18v-588.64c39.95,41.41,100.8,89.49,184.33,115.99,32.39,10.24,66.96,16.63,102.82,19,11.26,17.76,30.57,55.33,22.9,94.59-7.58,38.61-39.7,73.09-95.44,102.47-18.83,9.92-26.1,33.35-16.18,52.25,6.7,12.7,19.82,20.59,34.22,20.59,6.24,0,12.46-1.54,17.99-4.45,77.76-41,123.31-93.72,135.36-156.68,6.78-35.29,2.24-73.29-13.1-110.65,85.26-9.39,176.53-40.53,271.49-92.66,9.07-4.95,15.67-13.14,18.56-23.05,2.89-9.9,1.75-20.35-3.21-29.43-6.79-12.36-19.78-20.04-33.89-20.04-6.48,0-12.92,1.67-18.58,4.8-22.84,12.49-45.71,23.8-68.23,33.74,5.73-20.98,7.38-42.04,4.91-62.87-2.54-21.21-9.33-41.95-20.22-61.83,66.4-18.72,113.92-56.94,116.03-58.66,8.01-6.52,13-15.77,14.04-26.06,1.04-10.27-1.98-20.34-8.51-28.36-7.39-9.02-18.32-14.2-29.98-14.2-8.83,0-17.46,3.07-24.3,8.64-.02.02-.04.04-.07.05-6.75,5.29-67.95,51.63-138.68,51.64-9.04,0-17.98-.78-26.56-2.31-49.1-8.78-91.93-43.66-127.29-103.68-51.89-88.08-114.38-137.69-185.74-147.44-8.34-1.14-16.85-1.71-25.29-1.71-29.16,0-58.48,6.67-87.38,19.85v-179.91c11.59-29.39,68.97-153.42,211-153.42,15.24,0,31.2,1.44,47.46,4.29,2.2.38,4.43.57,6.65.57,18.8,0,34.82-13.45,38.1-32.02,3.65-21.01-10.44-41.06-31.39-44.7-20.82-3.65-41.36-5.49-61.07-5.49-50.46,0-97.35,12.01-139.35,35.68-25.8,14.54-49.73,33.44-71.39,56.36v-113.45c0-63.44,8.15-117.6,23.56-156.62,14.9-37.73,35.74-60.75,61.94-68.43,6.98-2.05,14.5-3.09,22.34-3.09,57.88,0,130.08,54.26,183.92,138.21,6.78,10.64,18.4,17.28,31.12,17.76.39.01,40.55,1.78,88.51,13.22,42.86,10.22,101.21,30.54,135.81,69.29,22.19,24.85,31.65,54.26,28.93,89.92-2.9,38.84-14.99,64.18-36.97,77.48-13.76,8.34-32.27,12.57-55,12.57-42.28,0-88.04-14.9-106.32-22.78-4.87-2.1-10.01-3.17-15.29-3.17-15.45,0-29.39,9.15-35.5,23.32-4.09,9.47-4.25,19.97-.46,29.56,3.8,9.61,11.12,17.15,20.56,21.23,2.72,1.19,67.53,29.08,136.94,29.08,37.11,0,69.06-7.93,94.96-23.58,31.17-18.81,52.87-47.75,64.64-86.14,36.07,20.76,65.73,53.22,84.26,92.49,19.13,40.55,24.42,84.67,14.51,121.05-16.22,59.64-72.23,92.48-157.73,92.48-33.11,0-70.11-4.89-109.94-14.52-3.01-.73-6.09-1.1-9.16-1.1-17.88,0-33.3,12.17-37.51,29.59-2.43,10.06-.79,20.46,4.61,29.28,5.39,8.8,13.88,14.96,23.89,17.36,47.54,11.47,91.45,17.29,130.49,17.29,107.61-.03,165.75-43.07,196.57-83.23,27.12,31.94,64.1,84.74,63.19,134.35-.5,26.51-12.5,49.31-36.67,69.7-9.42,7.94-14.53,20.02-13.67,32.32.88,12.27,7.65,23.49,18.11,30.02l.03.02c5.43,3.46,133.08,85.75,141.21,181.04,3.44,40.04-15.32,77.68-57.34,115.06-15.75,13.96-17.37,38.21-3.62,54.1h0c3.67,4.37,89.7,108,66.21,200.5-10.53,41.43-43.07,76.43-96.79,104.15-9.36-35.8-25.52-66.3-48.13-90.78-12.82-13.91-27.78-25.84-44.58-35.57,21.75-37.52,42.98-91.1,33.54-147.82-8.86-53.47-42.26-97.52-99.29-130.93-5.92-3.45-12.66-5.28-19.47-5.28-13.69,0-26.49,7.34-33.37,19.12-5.24,8.88-6.7,19.28-4.11,29.27,2.6,10.02,8.95,18.41,17.88,23.64,36.18,21.13,57.06,46.91,62.07,76.62,6.98,41.44-15.49,84.4-31.91,109.2-10.12-1.6-20.11-2.49-29.79-2.64-3.88-.19-7.81-.29-11.69-.29-122.58,0-203.02,95.67-206.39,99.75-13.51,16.39-11.21,40.75,5.15,54.33,6.92,5.71,15.67,8.86,24.64,8.86,11.53,0,22.36-5.06,29.74-13.87l.12-.14c2.15-2.53,61.88-71.6,146.58-71.6,2.91,0,5.86.08,8.76.25h.25c.61.04,1.2.06,1.8.06.49,0,.96-.01,1.41-.04,3.59.02,56.34.97,91.84,39.47,31.47,34.1,43.14,89.07,34.7,163.38-20.62,181.46-148.79,195.57-187.59,195.57-5.84,0-9.62-.31-10.68-.41-1.35-.14-2.72-.21-4.08-.21Zm-359.92-1099.12c47.33,80.35,108,127.63,180.28,140.53,7.11,1.3,14.65,2.18,23.49,2.76,11.46,11.82,28.44,33.68,31.67,61.9,3.09,27.27-7.56,56.23-31.59,86.02-1.2,1.46-2.19,2.96-3.01,4.38-39.77,10.04-78.45,15.12-115.05,15.12s-74.72-5.48-109.15-16.3c-126.5-39.75-193.39-143.5-208.45-169.45v-204.41c15.69-11.39,48.99-31.63,87.47-31.63,5.09,0,10.19.35,15.15,1.05,46.56,6.56,90.02,43.58,129.18,110.04Z"/><path d="m1619.25,340.95c14.99,0,27.18-12.21,27.18-27.22V27.2c0-15-12.19-27.2-27.18-27.2s-27.2,12.2-27.2,27.2v286.54c0,15.01,12.2,27.22,27.2,27.22Z"/><path d="m1619.25,2897.62c-15,0-27.2,12.22-27.2,27.23v286.55c0,14.98,12.2,27.17,27.2,27.17s27.18-12.19,27.18-27.17v-286.55c0-15.02-12.19-27.23-27.18-27.23Z"/><path d="m1189.97,386.08c3.66,11.22,14.06,18.77,25.86,18.77,2.85,0,5.67-.45,8.39-1.33,6.94-2.26,12.58-7.09,15.88-13.6,3.28-6.47,3.84-13.82,1.6-20.66l-88.55-272.54c-3.66-11.23-14.06-18.78-25.88-18.78-2.85,0-5.67.45-8.37,1.33-6.93,2.24-12.56,7.04-15.86,13.52-3.3,6.48-3.87,13.86-1.61,20.75l88.55,272.56Z"/><path d="m2048.57,2852.54c-3.63-11.25-14.04-18.81-25.9-18.81-2.83,0-5.64.44-8.39,1.32-14.25,4.64-22.08,20.02-17.45,34.29l88.54,272.54c3.69,11.22,14.08,18.75,25.87,18.75,2.85,0,5.68-.45,8.34-1.32,6.91-2.22,12.54-7,15.85-13.47,3.32-6.48,3.92-13.86,1.68-20.79l-88.55-272.52Z"/><path d="m829.9,579.07c5.1,7,13.33,11.19,22.02,11.19,5.73,0,11.24-1.78,15.96-5.19,12.13-8.83,14.82-25.88,6-37.98l-168.44-231.79c-5.09-7.03-13.31-11.23-21.99-11.23-5.76,0-11.28,1.79-15.99,5.19-12.12,8.79-14.83,25.82-6.02,37.98l168.46,231.82Z"/><path d="m2408.67,2659.53c-5.08-7.04-13.3-11.24-22-11.24-5.75,0-11.27,1.78-16.03,5.21-12.11,8.88-14.78,25.93-5.98,37.96l168.4,231.86c5.09,7.01,13.33,11.2,22.03,11.2,5.73,0,11.25-1.79,16-5.22,12.11-8.85,14.77-25.88,5.96-37.94l-168.39-231.84Z"/><path d="m315.27,705.48l231.82,168.44c4.67,3.38,10.18,5.17,15.93,5.17,8.66,0,16.89-4.17,22.05-11.21,8.78-12.13,6.09-29.17-6.02-37.99l-231.84-168.45c-4.67-3.38-10.18-5.17-15.94-5.17-8.7,0-16.94,4.19-22.02,11.2-4.28,5.88-6.01,13.07-4.87,20.25,1.14,7.17,5,13.48,10.88,17.76Z"/><path d="m2923.26,2533.08l-231.75-168.41c-4.7-3.42-10.24-5.23-16.02-5.23-8.69,0-16.91,4.2-21.99,11.22-4.28,5.9-6.01,13.1-4.87,20.28,1.14,7.16,5.01,13.45,10.88,17.71l231.76,168.45c4.68,3.41,10.21,5.22,16,5.22,8.64,0,16.86-4.18,22-11.21,8.8-12.15,6.11-29.2-6.02-38.02Z"/><path d="m96.74,1153.15l272.46,88.56c2.69.88,5.45,1.31,8.45,1.31,11.83,0,22.23-7.55,25.86-18.76,2.25-6.91,1.67-14.28-1.64-20.76-3.31-6.48-8.95-11.28-15.84-13.49l-272.52-88.59c-2.7-.87-5.5-1.3-8.33-1.3-11.83,0-22.24,7.54-25.91,18.77-4.63,14.26,3.21,29.64,17.47,34.27Z"/><path d="m3141.84,2085.39l-272.56-88.61c-2.7-.87-5.5-1.3-8.32-1.3-11.84,0-22.25,7.55-25.89,18.79-2.25,6.92-1.67,14.29,1.61,20.76,3.29,6.49,8.92,11.3,15.84,13.55l272.6,88.59c2.68.84,5.49,1.27,8.34,1.27,11.83,0,22.22-7.55,25.85-18.77,4.62-14.23-3.21-29.61-17.47-34.27Z"/><path d="m340.95,1619.25c0-14.98-12.2-27.17-27.2-27.17H27.22c-15.01,0-27.22,12.19-27.22,27.17s12.21,27.2,27.22,27.2h286.53c15,0,27.2-12.2,27.2-27.2Z"/><path d="m3211.36,1592.12l-286.53-.07c-15,0-27.2,12.2-27.2,27.2s12.2,27.17,27.2,27.17l286.53.07c15.01,0,27.22-12.2,27.22-27.2s-12.21-27.17-27.21-27.17Z"/><path d="m401.87,2035.01c3.3-6.49,3.88-13.86,1.62-20.78-3.7-11.21-14.11-18.75-25.91-18.75-2.82,0-5.62.44-8.38,1.32l-272.52,88.58c-14.22,4.7-22.03,20.09-17.42,34.29,3.64,11.23,14.03,18.78,25.85,18.78,2.85,0,5.65-.43,8.43-1.3l272.48-88.56c6.92-2.25,12.55-7.07,15.85-13.57Z"/><path d="m2836.68,1203.49c-3.29,6.48-3.86,13.84-1.63,20.67,3.6,11.28,13.99,18.85,25.85,18.85,2.79,0,5.6-.44,8.41-1.33l272.53-88.53c14.23-4.63,22.09-19.98,17.5-34.27-3.66-11.23-14.07-18.78-25.9-18.78-2.82,0-5.62.44-8.35,1.32l-272.57,88.52c-6.91,2.26-12.54,7.07-15.83,13.55Z"/><path d="m589.92,2390.85c1.13-7.17-.59-14.35-4.85-20.22-5.09-7.02-13.33-11.2-22.04-11.2-5.76,0-11.27,1.78-15.96,5.17l-231.79,168.47c-5.87,4.24-9.73,10.52-10.88,17.68-1.15,7.19.57,14.39,4.86,20.31,5.11,7,13.35,11.18,22.03,11.18,5.74,0,11.25-1.78,15.98-5.17l231.76-168.48c5.88-4.26,9.74-10.56,10.87-17.74Z"/><path d="m2648.61,847.61c-1.14,7.18.59,14.36,4.87,20.23,5.1,7.02,13.34,11.21,22.05,11.21,5.76,0,11.27-1.78,15.93-5.15l231.87-168.42c12.1-8.81,14.8-25.84,5.98-38.02-5.13-6.99-13.36-11.17-22.02-11.17-5.75,0-11.25,1.79-15.93,5.17l-231.85,168.4c-5.88,4.27-9.75,10.57-10.89,17.75Z"/><path d="m867.87,2653.44c-4.67-3.4-10.19-5.19-15.96-5.19-8.7,0-16.93,4.2-22.02,11.22l-168.4,231.78c-4.29,5.89-6.02,13.09-4.88,20.27,1.14,7.17,5,13.48,10.93,17.79,4.71,3.38,10.2,5.17,15.89,5.17,8.69,0,16.94-4.22,22.05-11.27l168.42-231.81c4.25-5.88,5.97-13.06,4.84-20.22-1.13-7.2-5-13.51-10.86-17.75Z"/><path d="m2370.62,585c4.59,3.38,10.27,5.24,15.98,5.24,8.69,0,16.92-4.19,22.04-11.21l168.45-231.84c8.79-12.15,6.09-29.18-6.01-37.95-4.68-3.41-10.21-5.21-15.98-5.21-8.69,0-16.92,4.2-22,11.21l-168.5,231.83c-8.77,12.11-6.05,29.15,6.02,37.93Z"/><path d="m1224.18,2835.01c-2.71-.87-5.52-1.32-8.36-1.32-11.81,0-22.21,7.54-25.89,18.8l-88.48,272.5c-4.64,14.25,3.17,29.63,17.4,34.28l.22.07c2.8.84,5.56,1.27,8.21,1.27,11.78,0,22.18-7.55,25.9-18.82l88.49-272.5c2.25-6.92,1.67-14.3-1.64-20.79-3.31-6.48-8.94-11.27-15.85-13.49Z"/><path d="m2014.33,403.49c2.72.87,5.53,1.31,8.34,1.31,11.87,0,22.28-7.57,25.88-18.8l88.55-272.48c2.27-6.93,1.69-14.32-1.63-20.81-3.31-6.47-8.94-11.26-15.84-13.47-2.72-.88-5.54-1.32-8.38-1.32-11.8,0-22.2,7.53-25.88,18.76l-88.56,272.54c-4.62,14.25,3.2,29.62,17.5,34.28Z"/><path d="m1388.17,334.01c2.07,13.33,13.36,23,26.84,23,1.45,0,2.91-.12,4.34-.37,7.13-1.13,13.4-4.97,17.66-10.82,4.28-5.88,6.02-13.07,4.88-20.25l-22.4-141.54c-2.13-13.3-13.39-22.95-26.78-22.95-1.49,0-2.99.12-4.38.36-14.79,2.35-24.91,16.31-22.57,31.12l22.41,141.45Z"/><path d="m1850.37,2904.5c-2.1-13.31-13.42-22.97-26.91-22.97-1.4,0-2.81.11-4.27.34-14.79,2.4-24.9,16.38-22.53,31.13l22.4,141.5c2.1,13.31,13.39,22.97,26.84,22.97,1.53,0,3.01-.13,4.41-.38,7.13-1.17,13.39-5.03,17.64-10.89,4.26-5.88,5.97-13.06,4.83-20.19l-22.4-141.51Z"/><path d="m1002.32,468.41c4.69,9.14,13.99,14.82,24.27,14.82,4.18,0,8.4-.99,12.21-2.87l.15-.08c13.3-6.85,18.6-23.26,11.82-36.58l-65.03-127.65c-4.66-9.16-13.96-14.84-24.27-14.84-4.24,0-8.5,1.01-12.36,2.96-13.27,6.79-18.61,23.17-11.87,36.54l65.08,127.71Z"/><path d="m2236.19,2770.18c-4.64-9.16-13.93-14.84-24.25-14.84-4.25,0-8.5,1.02-12.35,2.97-13.31,6.83-18.64,23.23-11.86,36.57l65.04,127.59c4.63,9.2,13.92,14.92,24.26,14.92,4.21,0,8.46-1.02,12.33-2.97,13.35-6.81,18.68-23.23,11.88-36.61l-65.05-127.62Z"/><path d="m676.87,715.35c5.06,5.08,12.07,8,19.24,8s14.06-2.83,19.24-7.98c10.6-10.6,10.6-27.86,0-38.47l-101.3-101.29c-5.13-5.15-11.97-7.99-19.24-7.99s-14.11,2.84-19.19,7.96c-5.16,5.13-8,11.95-8.01,19.22,0,7.28,2.84,14.12,7.98,19.25l101.28,101.3Z"/><path d="m2561.66,2523.2c-5.12-5.12-11.95-7.95-19.21-7.95s-14.08,2.82-19.2,7.94c-5.16,5.14-7.99,11.97-7.99,19.24,0,7.26,2.84,14.09,7.98,19.22l101.3,101.32c5.12,5.12,11.94,7.95,19.2,7.95s14-2.8,19.22-7.95c5.14-5.14,7.97-11.97,7.97-19.23s-2.83-14.09-7.97-19.23l-101.3-101.32Z"/><path d="m316.01,985.72l127.68,65.11c3.85,1.95,7.99,2.94,12.33,2.94,10.29,0,19.58-5.69,24.22-14.81,3.31-6.45,3.91-13.81,1.68-20.72-2.23-6.92-7.03-12.56-13.52-15.88l-127.73-65.09c-3.79-1.92-8.04-2.93-12.28-2.93-10.3,0-19.59,5.68-24.26,14.83-3.3,6.48-3.87,13.86-1.61,20.78,2.25,6.9,7.06,12.51,13.5,15.78Z"/><path d="m2922.53,2252.79l-127.69-65.04c-3.8-1.93-8.05-2.94-12.3-2.94-10.31,0-19.6,5.7-24.24,14.85-6.79,13.31-1.47,29.72,11.89,36.58l127.76,65.1c3.82,1.87,8.05,2.86,12.24,2.86,10.24,0,19.52-5.67,24.25-14.86,6.76-13.36,1.42-29.76-11.9-36.55Z"/><path d="m334.08,1388.2l-141.49-22.45c-1.44-.23-2.9-.35-4.35-.35-13.4,0-24.68,9.64-26.81,22.95-2.34,14.82,7.78,28.79,22.57,31.14l141.51,22.42c1.45.23,2.87.35,4.34.35,13.45,0,24.74-9.65,26.84-22.94,2.33-14.76-7.79-28.71-22.6-31.12Z"/><path d="m2904.5,1850.38l141.31,22.32c1.42.27,2.88.4,4.45.4,13.26,0,24.8-9.87,26.84-22.95,2.35-14.8-7.78-28.76-22.57-31.11l-141.48-22.38c-1.44-.23-2.91-.35-4.36-.35-13.42,0-24.68,9.65-26.78,22.95-2.34,14.75,7.78,28.7,22.61,31.11Z"/><path d="m325.58,1796.67l-141.49,22.38c-7.18,1.11-13.49,4.95-17.77,10.82-4.29,5.89-6.03,13.09-4.89,20.29,2.07,13.08,13.62,22.95,26.86,22.95,1.57,0,3.03-.13,4.45-.4l141.35-22.32c7.16-1.14,13.46-5,17.73-10.88,4.28-5.88,6.01-13.07,4.87-20.23-2.07-13.09-13.59-22.96-26.8-22.96-1.45,0-2.92.12-4.31.35Z"/><path d="m2912.72,1441.95l.14-.02,141.67-22.44c14.79-2.35,24.91-16.32,22.57-31.14-2.11-13.3-13.36-22.96-26.75-22.96-1.47,0-2.96.12-4.36.35l-141.53,22.43c-14.78,2.4-24.91,16.36-22.57,31.11,2.09,13.29,13.38,22.94,26.84,22.94,1.29,0,2.59-.09,3.99-.27Z"/><path d="m328.39,2304.21c4.27,0,8.53-1.03,12.29-2.96l127.68-65.05c6.47-3.27,11.28-8.88,13.53-15.79,2.26-6.92,1.68-14.29-1.62-20.76-4.66-9.15-13.96-14.84-24.27-14.84-4.23,0-8.46,1.01-12.29,2.93l-127.74,65.04c-13.33,6.85-18.64,23.25-11.88,36.51,4.63,9.2,13.93,14.92,24.29,14.92Z"/><path d="m2910.12,934.34c-4.24,0-8.48,1.01-12.32,2.95l-127.59,65.03c-6.46,3.26-11.27,8.86-13.53,15.77-2.27,6.93-1.7,14.32,1.59,20.79,4.64,9.17,13.94,14.86,24.28,14.86,4.24,0,8.49-1.03,12.29-2.97l127.65-65.03c6.48-3.28,11.28-8.89,13.53-15.81,2.24-6.9,1.67-14.27-1.64-20.81-4.7-9.12-14-14.78-24.27-14.78Z"/><path d="m723.32,2542.43c0-7.26-2.84-14.09-7.99-19.23-5.12-5.12-11.95-7.95-19.21-7.95s-14.08,2.82-19.24,7.95l-101.27,101.29c-5.15,5.11-7.99,11.92-8.02,19.18-.02,7.28,2.79,14.12,7.92,19.28l.07.07c5.17,5.09,11.99,7.89,19.21,7.89s14.14-2.89,19.22-7.95l101.31-101.31c5.15-5.14,7.99-11.97,7.99-19.23Z"/><path d="m2515.25,696.11c0,7.26,2.84,14.08,7.97,19.19,5.12,5.15,11.95,7.98,19.22,7.98s14.02-2.82,19.22-7.96l101.3-101.27c5.15-5.14,7.98-11.98,7.98-19.26,0-7.27-2.84-14.09-7.96-19.19-5.13-5.15-11.96-7.99-19.23-7.99s-14.1,2.84-19.2,7.98l-101.3,101.26c-5.15,5.15-7.99,11.99-7.98,19.26Z"/><path d="m1038.93,2758.3c-3.82-1.95-8.09-2.98-12.36-2.98-10.28,0-19.56,5.69-24.21,14.84l-65.14,127.7c-6.73,13.41-1.37,29.8,12.01,36.57,3.9,1.94,8.03,2.92,12.29,2.92,10.24,0,19.52-5.67,24.23-14.83l65.06-127.64c6.79-13.31,1.47-29.72-11.88-36.58Z"/><path d="m2199.59,480.24l.17.09c3.86,1.89,7.96,2.85,12.19,2.85,10.32,0,19.61-5.7,24.23-14.84l65.06-127.65c6.79-13.32,1.46-29.72-11.91-36.56-3.8-1.92-8.05-2.94-12.29-2.94-10.3,0-19.59,5.69-24.25,14.84l-65.06,127.63c-6.78,13.32-1.46,29.74,11.86,36.58Z"/><path d="m1419.24,2881.85c-1.36-.21-2.75-.31-4.12-.31-13.48,0-24.8,9.66-26.9,22.96l-22.45,141.48c-2.34,14.77,7.77,28.74,22.53,31.13l.19.03c1.41.2,2.81.3,4.16.3,13.4,0,24.68-9.63,26.84-22.93l22.44-141.51c1.14-7.17-.59-14.37-4.87-20.25-4.28-5.89-10.58-9.75-17.82-10.9Z"/><path d="m1819.16,356.63c1.72.29,3.23.33,4.37.33,13.41,0,24.69-9.63,26.84-22.92l22.4-141.46c1.15-7.18-.57-14.37-4.83-20.25-4.27-5.88-10.58-9.75-17.78-10.89-1.4-.22-2.83-.33-4.24-.33-13.46,0-24.75,9.65-26.86,22.95l-22.4,141.44c-1.15,7.18.57,14.38,4.83,20.26,4.25,5.86,10.52,9.72,17.67,10.87Z"/></g></svg>